<svg version="1.1" xmlns="http://www.w3.org/2000/svg" viewBox="0 0 298.5348336066605 311.73225577625533" width="298.5348336066605" height="311.73225577625533"><!-- svg-source:excalidraw --><metadata></metadata><defs><style class="style-fonts">
      </style></defs><rect x="0" y="0" width="298.5348336066605" height="311.73225577625533" fill="transparent"></rect><g transform="translate(30.838018269732515 10) rotate(0 118.42939853359775 145.86612788812766)" stroke="none"><path fill="lavender" d="M 2.96,-8.63 Q 2.96,-8.63 15.63,-3.73 28.29,1.16 39.31,9.46 50.34,17.76 56.74,23.47 63.14,29.17 67.61,32.05 72.09,34.92 77.63,36.65 83.17,38.38 84.29,37.70 85.41,37.01 86.14,35.97 86.86,34.93 87.82,34.09 88.77,33.26 89.90,32.67 91.02,32.09 92.26,31.79 93.49,31.49 94.76,31.50 96.03,31.51 97.26,31.82 98.49,32.13 99.61,32.72 100.73,33.32 101.68,34.16 102.63,35.01 103.34,36.06 104.06,37.10 104.50,38.29 104.95,39.48 105.09,40.74 105.24,42.00 105.08,43.26 104.92,44.52 104.47,45.71 104.01,46.89 97.02,55.76 90.02,64.63 78.41,79.33 66.79,94.03 56.07,106.64 45.34,119.24 33.38,131.63 21.42,144.02 12.52,152.97 3.61,161.92 -0.21,166.53 -4.04,171.14 -6.95,175.34 -9.87,179.55 -15.27,182.25 -20.67,184.96 -25.08,181.87 -29.48,178.79 -29.79,174.07 -30.10,169.36 -28.06,164.83 -26.03,160.30 -21.91,157.69 -17.80,155.07 -9.41,154.83 -1.01,154.60 18.86,163.73 38.75,172.87 58.53,187.77 78.32,202.67 90.83,213.24 103.35,223.81 118.94,235.20 134.54,246.60 149.23,256.06 163.93,265.52 175.05,270.85 186.18,276.19 198.84,278.98 211.49,281.76 220.68,283.03 229.87,284.29 235.67,283.83 241.47,283.36 246.04,280.71 250.62,278.07 249.62,278.54 248.63,279.02 248.90,277.58 249.17,276.13 249.89,274.86 250.61,273.58 251.69,272.59 252.78,271.61 254.12,271.03 255.47,270.44 256.93,270.32 258.39,270.19 259.81,270.54 261.24,270.89 262.48,271.67 263.71,272.46 264.64,273.59 265.56,274.73 266.07,276.11 266.58,277.48 266.63,278.95 266.67,280.41 266.25,281.81 265.83,283.22 264.97,284.41 264.12,285.61 262.94,286.47 261.75,287.33 260.35,287.76 258.95,288.20 257.49,288.16 256.02,288.13 254.64,287.63 253.26,287.13 252.12,286.22 250.97,285.30 250.18,284.07 249.38,282.84 249.02,281.42 248.66,280.00 248.78,278.53 248.89,277.07 249.46,275.72 250.04,274.37 251.01,273.28 251.99,272.18 253.26,271.46 254.53,270.73 255.97,270.45 257.41,270.17 258.86,270.36 260.32,270.55 261.63,271.20 262.95,271.85 263.99,272.88 265.03,273.91 265.69,275.22 266.34,276.53 266.55,277.98 266.75,279.44 266.75,279.43 266.75,279.43 265.31,283.63 263.87,287.83 259.97,290.50 256.07,293.18 248.86,294.66 241.66,296.15 235.04,295.84 228.42,295.53 218.72,294.34 209.02,293.15 195.08,290.15 181.14,287.16 169.17,281.70 157.20,276.25 141.97,266.92 126.74,257.58 110.47,246.37 94.20,235.15 81.53,225.39 68.87,215.64 50.08,202.46 31.30,189.29 14.93,182.17 -1.42,175.05 -6.68,174.24 -11.94,173.43 -17.33,171.21 -22.71,168.99 -18.55,165.30 -14.38,161.61 -10.01,157.31 -5.64,153.02 2.87,143.84 11.39,134.66 22.58,122.26 33.76,109.85 43.66,97.01 53.56,84.17 64.15,69.06 74.75,53.96 80.08,45.49 85.41,37.01 86.14,35.97 86.86,34.93 87.82,34.10 88.77,33.26 89.90,32.67 91.02,32.09 92.26,31.79 93.49,31.49 94.76,31.50 96.03,31.51 97.26,31.82 98.49,32.12 99.61,32.72 100.73,33.32 101.68,34.16 102.63,35.01 103.34,36.06 104.06,37.10 104.50,38.29 104.95,39.48 105.09,40.74 105.24,42.00 105.08,43.26 104.92,44.52 104.47,45.71 104.01,46.89 103.43,47.32 102.85,47.75 99.12,50.90 95.38,54.06 90.30,55.15 85.23,56.24 78.50,54.25 71.78,52.26 67.52,49.66 63.26,47.06 58.75,43.38 54.24,39.69 47.96,34.66 41.67,29.64 32.25,23.02 22.82,16.41 9.92,12.52 -2.96,8.63 -3.95,8.15 -4.95,7.67 -5.79,6.97 -6.64,6.26 -7.29,5.38 -7.95,4.49 -8.37,3.47 -8.79,2.46 -8.96,1.37 -9.12,0.28 -9.03,-0.81 -8.93,-1.90 -8.57,-2.94 -8.21,-3.98 -7.62,-4.91 -7.02,-5.84 -6.22,-6.59 -5.42,-7.35 -4.46,-7.89 -3.50,-8.43 -2.44,-8.73 -1.38,-9.02 -0.28,-9.06 0.81,-9.09 1.89,-8.86 2.97,-8.63 2.96,-8.63 L 2.96,-8.63 Z"></path></g></svg>